<svg width="1254" height="1268" viewBox="0 0 1254 1268" fill="none" xmlns="http://www.w3.org/2000/svg">
<g clip-path="url(#clip0_458_4)">
<line opacity="0.0169492" x1="838.074" y1="1229.67" x2="404.542" y2="38.5515" stroke="#00FFD2" stroke-width="1.93902"/>
<line opacity="0.0338983" x1="785.317" y1="1246.22" x2="457.248" y2="21.8464" stroke="#00FFD2" stroke-width="1.93902"/>
<line opacity="0.0508475" x1="731.318" y1="1258.1" x2="511.209" y2="9.79762" stroke="#00FFD2" stroke-width="1.93902"/>
<line opacity="0.0677966" x1="676.491" y1="1265.23" x2="566.016" y2="2.49496" stroke="#00FFD2" stroke-width="1.93902"/>
<line opacity="0.0847458" x1="621.249" y1="1267.56" x2="621.249" y2="0.000122028" stroke="#00FFD2" stroke-width="1.93902"/>
<line opacity="0.101695" x1="566.014" y1="1265.06" x2="676.49" y2="2.32585" stroke="#00FFD2" stroke-width="1.93902"/>
<line opacity="0.118644" x1="511.209" y1="1257.77" x2="731.319" y2="9.46079" stroke="#00FFD2" stroke-width="1.93902"/>
<line opacity="0.135593" x1="457.247" y1="1245.72" x2="785.316" y2="21.3445" stroke="#00FFD2" stroke-width="1.93902"/>
<line opacity="0.152542" x1="404.542" y1="1229.01" x2="838.074" y2="37.8882" stroke="#00FFD2" stroke-width="1.93902"/>
<line opacity="0.169492" x1="353.493" y1="1207.78" x2="889.188" y2="58.9745" stroke="#00FFD2" stroke-width="1.93902"/>
<line opacity="0.186441" x1="304.489" y1="1182.17" x2="938.27" y2="84.4273" stroke="#00FFD2" stroke-width="1.93902"/>
<line opacity="0.20339" x1="257.902" y1="1152.39" x2="984.946" y2="114.064" stroke="#00FFD2" stroke-width="1.93902"/>
<line opacity="0.220339" x1="214.09" y1="1118.66" x2="1028.86" y2="147.655" stroke="#00FFD2" stroke-width="1.93902"/>
<line opacity="0.237288" x1="173.383" y1="1081.25" x2="1069.68" y2="184.944" stroke="#00FFD2" stroke-width="1.93902"/>
<line opacity="0.254237" x1="136.091" y1="1040.43" x2="1107.1" y2="225.654" stroke="#00FFD2" stroke-width="1.93902"/>
<line opacity="0.271186" x1="102.499" y1="996.506" x2="1140.83" y2="269.462" stroke="#00FFD2" stroke-width="1.93902"/>
<line opacity="0.288136" x1="72.8647" y1="949.834" x2="1170.61" y2="316.053" stroke="#00FFD2" stroke-width="1.93902"/>
<line opacity="0.305085" x1="47.4073" y1="900.753" x2="1196.21" y2="365.058" stroke="#00FFD2" stroke-width="1.93902"/>
<line opacity="0.322034" x1="26.3276" y1="849.636" x2="1217.45" y2="416.104" stroke="#00FFD2" stroke-width="1.93902"/>
<line opacity="0.338983" x1="9.78215" y1="796.88" x2="1234.15" y2="468.811" stroke="#00FFD2" stroke-width="1.93902"/>
<line opacity="0.355932" x1="-2.10183" y1="742.885" x2="1246.2" y2="522.775" stroke="#00FFD2" stroke-width="1.93902"/>
<line opacity="0.372881" x1="-9.23464" y1="688.053" x2="1253.5" y2="577.578" stroke="#00FFD2" stroke-width="1.93902"/>
<line opacity="0.38983" x1="-11.5625" y1="632.811" x2="1256" y2="632.811" stroke="#00FFD2" stroke-width="1.93902"/>
<line opacity="0.40678" x1="-9.06565" y1="577.578" x2="1253.67" y2="688.053" stroke="#00FFD2" stroke-width="1.93902"/>
<line opacity="0.423729" x1="-1.76512" y1="522.769" x2="1246.54" y2="742.879" stroke="#00FFD2" stroke-width="1.93902"/>
<line opacity="0.440678" x1="10.284" y1="468.81" x2="1234.66" y2="796.879" stroke="#00FFD2" stroke-width="1.93902"/>
<line opacity="0.457627" x1="26.9908" y1="416.105" x2="1218.11" y2="849.637" stroke="#00FFD2" stroke-width="1.93902"/>
<line opacity="0.474576" x1="48.2267" y1="365.053" x2="1197.03" y2="900.748" stroke="#00FFD2" stroke-width="1.93902"/>
<line opacity="0.491525" x1="73.8342" y1="316.052" x2="1171.58" y2="949.834" stroke="#00FFD2" stroke-width="1.93902"/>
<line opacity="0.508475" x1="103.612" y1="269.469" x2="1141.94" y2="996.513" stroke="#00FFD2" stroke-width="1.93902"/>
<line opacity="0.525424" x1="137.337" y1="225.65" x2="1108.35" y2="1040.42" stroke="#00FFD2" stroke-width="1.93902"/>
<line opacity="0.542373" x1="174.754" y1="184.946" x2="1071.06" y2="1081.25" stroke="#00FFD2" stroke-width="1.93902"/>
<line opacity="0.559322" x1="215.576" y1="147.652" x2="1030.35" y2="1118.66" stroke="#00FFD2" stroke-width="1.93902"/>
<line opacity="0.576271" x1="259.49" y1="114.061" x2="986.534" y2="1152.39" stroke="#00FFD2" stroke-width="1.93902"/>
<line opacity="0.59322" x1="306.167" y1="84.423" x2="939.948" y2="1182.16" stroke="#00FFD2" stroke-width="1.93902"/>
<line opacity="0.610169" x1="355.25" y1="58.9697" x2="890.945" y2="1207.77" stroke="#00FFD2" stroke-width="1.93902"/>
<line opacity="0.627119" x1="406.363" y1="37.8925" x2="839.895" y2="1229.01" stroke="#00FFD2" stroke-width="1.93902"/>
<line opacity="0.644068" x1="459.12" y1="21.3448" x2="787.189" y2="1245.72" stroke="#00FFD2" stroke-width="1.93902"/>
<line opacity="0.661017" x1="513.118" y1="9.45909" x2="733.228" y2="1257.76" stroke="#00FFD2" stroke-width="1.93902"/>
<line opacity="0.677966" x1="567.946" y1="2.32908" x2="678.421" y2="1265.07" stroke="#00FFD2" stroke-width="1.93902"/>
<line opacity="0.694915" x1="623.188" y1="0.000488324" x2="623.188" y2="1267.56" stroke="#00FFD2" stroke-width="1.93902"/>
<line opacity="0.711864" x1="678.422" y1="2.49807" x2="567.947" y2="1265.24" stroke="#00FFD2" stroke-width="1.93902"/>
<line opacity="0.728814" x1="733.228" y1="9.79579" x2="513.118" y2="1258.1" stroke="#00FFD2" stroke-width="1.93902"/>
<line opacity="0.745763" x1="787.19" y1="21.8466" x2="459.121" y2="1246.22" stroke="#00FFD2" stroke-width="1.93902"/>
<line opacity="0.762712" x1="839.896" y1="38.5557" x2="406.364" y2="1229.67" stroke="#00FFD2" stroke-width="1.93902"/>
<line opacity="0.779661" x1="890.945" y1="59.7891" x2="355.25" y2="1208.59" stroke="#00FFD2" stroke-width="1.93902"/>
<line opacity="0.79661" x1="939.949" y1="85.393" x2="306.167" y2="1183.13" stroke="#00FFD2" stroke-width="1.93902"/>
<line opacity="0.813559" x1="986.535" y1="115.174" x2="259.491" y2="1153.5" stroke="#00FFD2" stroke-width="1.93902"/>
<line opacity="0.830508" x1="1030.35" y1="148.898" x2="215.574" y2="1119.91" stroke="#00FFD2" stroke-width="1.93902"/>
<line opacity="0.847458" x1="1071.05" y1="186.317" x2="174.753" y2="1082.62" stroke="#00FFD2" stroke-width="1.93902"/>
<line opacity="0.864407" x1="1108.35" y1="227.136" x2="137.338" y2="1041.91" stroke="#00FFD2" stroke-width="1.93902"/>
<line opacity="0.881356" x1="1141.94" y1="271.057" x2="103.612" y2="998.101" stroke="#00FFD2" stroke-width="1.93902"/>
<line opacity="0.898305" x1="1171.57" y1="317.732" x2="73.832" y2="951.513" stroke="#00FFD2" stroke-width="1.93902"/>
<line opacity="0.915254" x1="1197.03" y1="366.811" x2="48.228" y2="902.506" stroke="#00FFD2" stroke-width="1.93902"/>
<line opacity="0.932203" x1="1218.11" y1="417.927" x2="26.9909" y2="851.458" stroke="#00FFD2" stroke-width="1.93902"/>
<line opacity="0.949153" x1="1234.65" y1="470.683" x2="10.2836" y2="798.752" stroke="#00FFD2" stroke-width="1.93902"/>
<line opacity="0.966102" x1="1246.54" y1="524.678" x2="-1.76604" y2="744.788" stroke="#00FFD2" stroke-width="1.93902"/>
<line opacity="0.983051" x1="1253.67" y1="579.509" x2="-9.06767" y2="689.985" stroke="#00FFD2" stroke-width="1.93902"/>
<line x1="1256" y1="634.75" x2="-11.5624" y2="634.75" stroke="#00FFD2" stroke-width="1.93902"/>
</g>
<defs>
<clipPath id="clip0_458_4">
<rect width="1254" height="1268" fill="white"/>
</clipPath>
</defs>
</svg>
