<svg width="611" height="959" viewBox="0 0 611 959" fill="none" xmlns="http://www.w3.org/2000/svg">
<circle cx="35.1828" cy="999.738" r="580.82" transform="rotate(-135 35.1828 999.738)" stroke="#00FFD2" stroke-width="2"/>
<circle cx="35.1828" cy="989.192" r="580.82" transform="rotate(-135 35.1828 989.192)" stroke="#00FFD2" stroke-width="2"/>
<circle cx="35.1828" cy="978.646" r="580.82" transform="rotate(-135 35.1828 978.646)" stroke="#00FFD2" stroke-width="2"/>
<circle cx="35.1828" cy="968.101" r="580.82" transform="rotate(-135 35.1828 968.101)" stroke="#00FFD2" stroke-width="2"/>
<circle cx="35.1828" cy="957.555" r="580.82" transform="rotate(-135 35.1828 957.555)" stroke="#00FFD2" stroke-width="2"/>
<circle cx="35.1828" cy="947.009" r="580.82" transform="rotate(-135 35.1828 947.009)" stroke="#00FFD2" stroke-width="2"/>
<circle cx="35.1828" cy="936.463" r="580.82" transform="rotate(-135 35.1828 936.463)" stroke="#00FFD2" stroke-width="2"/>
<circle cx="35.1828" cy="925.918" r="580.82" transform="rotate(-135 35.1828 925.918)" stroke="#00FFD2" stroke-width="2"/>
<circle cx="35.1828" cy="915.372" r="580.82" transform="rotate(-135 35.1828 915.372)" stroke="#00FFD2" stroke-width="2"/>
<circle cx="35.1828" cy="904.826" r="580.82" transform="rotate(-135 35.1828 904.826)" stroke="#00FFD2" stroke-width="2"/>
<circle cx="35.1828" cy="894.281" r="580.82" transform="rotate(-135 35.1828 894.281)" stroke="#00FFD2" stroke-width="2"/>
<circle cx="35.1828" cy="883.736" r="580.82" transform="rotate(-135 35.1828 883.736)" stroke="#00FFD2" stroke-width="2"/>
<circle cx="35.1828" cy="873.189" r="580.82" transform="rotate(-135 35.1828 873.189)" stroke="#00FFD2" stroke-width="2"/>
<circle cx="35.1828" cy="862.644" r="580.82" transform="rotate(-135 35.1828 862.644)" stroke="#00FFD2" stroke-width="2"/>
<circle cx="35.1828" cy="852.098" r="580.82" transform="rotate(-135 35.1828 852.098)" stroke="#00FFD2" stroke-width="2"/>
<circle cx="35.1828" cy="841.552" r="580.82" transform="rotate(-135 35.1828 841.552)" stroke="#00FFD2" stroke-width="2"/>
<circle cx="35.1828" cy="831.006" r="580.82" transform="rotate(-135 35.1828 831.006)" stroke="#00FFD2" stroke-width="2"/>
<circle cx="35.1828" cy="820.461" r="580.82" transform="rotate(-135 35.1828 820.461)" stroke="#00FFD2" stroke-width="2"/>
<circle cx="35.1828" cy="809.915" r="580.82" transform="rotate(-135 35.1828 809.915)" stroke="#00FFD2" stroke-width="2"/>
<circle cx="35.1828" cy="799.369" r="580.82" transform="rotate(-135 35.1828 799.369)" stroke="#00FFD2" stroke-width="2"/>
<circle cx="35.1828" cy="788.823" r="580.82" transform="rotate(-135 35.1828 788.823)" stroke="#00FFD2" stroke-width="2"/>
<circle cx="35.1833" cy="778.279" r="580.82" transform="rotate(-135 35.1833 778.279)" stroke="#00FFD2" stroke-width="2"/>
<circle cx="35.1833" cy="767.733" r="580.82" transform="rotate(-135 35.1833 767.733)" stroke="#00FFD2" stroke-width="2"/>
<circle cx="35.1833" cy="757.187" r="580.82" transform="rotate(-135 35.1833 757.187)" stroke="#00FFD2" stroke-width="2"/>
<circle cx="35.1833" cy="746.641" r="580.82" transform="rotate(-135 35.1833 746.641)" stroke="#00FFD2" stroke-width="2"/>
<circle cx="35.1833" cy="736.096" r="580.82" transform="rotate(-135 35.1833 736.096)" stroke="#00FFD2" stroke-width="2"/>
<circle cx="35.1833" cy="725.55" r="580.82" transform="rotate(-135 35.1833 725.55)" stroke="#00FFD2" stroke-width="2"/>
<circle cx="35.1833" cy="715.004" r="580.82" transform="rotate(-135 35.1833 715.004)" stroke="#00FFD2" stroke-width="2"/>
<circle cx="35.1833" cy="704.458" r="580.82" transform="rotate(-135 35.1833 704.458)" stroke="#00FFD2" stroke-width="2"/>
<circle cx="35.1833" cy="693.913" r="580.82" transform="rotate(-135 35.1833 693.913)" stroke="#00FFD2" stroke-width="2"/>
<circle cx="35.1833" cy="683.366" r="580.82" transform="rotate(-135 35.1833 683.366)" stroke="#00FFD2" stroke-width="2"/>
<circle cx="35.1833" cy="672.822" r="580.82" transform="rotate(-135 35.1833 672.822)" stroke="#00FFD2" stroke-width="2"/>
<circle cx="35.1833" cy="662.276" r="580.82" transform="rotate(-135 35.1833 662.276)" stroke="#00FFD2" stroke-width="2"/>
<circle cx="35.1833" cy="651.731" r="580.82" transform="rotate(-135 35.1833 651.731)" stroke="#00FFD2" stroke-width="2"/>
<circle cx="35.1833" cy="641.184" r="580.82" transform="rotate(-135 35.1833 641.184)" stroke="#00FFD2" stroke-width="2"/>
<circle cx="35.1833" cy="630.638" r="580.82" transform="rotate(-135 35.1833 630.638)" stroke="#00FFD2" stroke-width="2"/>
<circle cx="35.1833" cy="620.093" r="580.82" transform="rotate(-135 35.1833 620.093)" stroke="#00FFD2" stroke-width="2"/>
<circle cx="35.1833" cy="609.547" r="580.82" transform="rotate(-135 35.1833 609.547)" stroke="#00FFD2" stroke-width="2"/>
<circle cx="35.1833" cy="599.001" r="580.82" transform="rotate(-135 35.1833 599.001)" stroke="#00FFD2" stroke-width="2"/>
<circle cx="35.1833" cy="588.456" r="580.82" transform="rotate(-135 35.1833 588.456)" stroke="#00FFD2" stroke-width="2"/>
<circle cx="35.1833" cy="577.909" r="580.82" transform="rotate(-135 35.1833 577.909)" stroke="#00FFD2" stroke-width="2"/>
<circle cx="35.1833" cy="567.365" r="580.82" transform="rotate(-135 35.1833 567.365)" stroke="#00FFD2" stroke-width="2"/>
<circle cx="35.1833" cy="556.819" r="580.82" transform="rotate(-135 35.1833 556.819)" stroke="#00FFD2" stroke-width="2"/>
<circle cx="35.1833" cy="546.274" r="580.82" transform="rotate(-135 35.1833 546.274)" stroke="#00FFD2" stroke-width="2"/>
<circle cx="35.1833" cy="535.727" r="580.82" transform="rotate(-135 35.1833 535.727)" stroke="#00FFD2" stroke-width="2"/>
<circle cx="35.1833" cy="525.182" r="580.82" transform="rotate(-135 35.1833 525.182)" stroke="#00FFD2" stroke-width="2"/>
<circle cx="35.1833" cy="514.636" r="580.82" transform="rotate(-135 35.1833 514.636)" stroke="#00FFD2" stroke-width="2"/>
<circle cx="35.1833" cy="504.09" r="580.82" transform="rotate(-135 35.1833 504.09)" stroke="#00FFD2" stroke-width="2"/>
<circle cx="35.1833" cy="493.544" r="580.82" transform="rotate(-135 35.1833 493.544)" stroke="#00FFD2" stroke-width="2"/>
<circle cx="35.1833" cy="482.999" r="580.82" transform="rotate(-135 35.1833 482.999)" stroke="#00FFD2" stroke-width="2"/>
<circle cx="35.1833" cy="472.453" r="580.82" transform="rotate(-135 35.1833 472.453)" stroke="#00FFD2" stroke-width="2"/>
<circle cx="35.1833" cy="461.907" r="580.82" transform="rotate(-135 35.1833 461.907)" stroke="#00FFD2" stroke-width="2"/>
<circle cx="35.1833" cy="451.363" r="580.82" transform="rotate(-135 35.1833 451.363)" stroke="#00FFD2" stroke-width="2"/>
<circle cx="35.1833" cy="440.817" r="580.82" transform="rotate(-135 35.1833 440.817)" stroke="#00FFD2" stroke-width="2"/>
<circle cx="35.1833" cy="430.271" r="580.82" transform="rotate(-135 35.1833 430.271)" stroke="#00FFD2" stroke-width="2"/>
<circle cx="35.1833" cy="419.725" r="580.82" transform="rotate(-135 35.1833 419.725)" stroke="#00FFD2" stroke-width="2"/>
<circle cx="35.1833" cy="409.18" r="580.82" transform="rotate(-135 35.1833 409.18)" stroke="#00FFD2" stroke-width="2"/>
<circle cx="35.1833" cy="398.634" r="580.82" transform="rotate(-135 35.1833 398.634)" stroke="#00FFD2" stroke-width="2"/>
<circle cx="35.1833" cy="388.089" r="580.82" transform="rotate(-135 35.1833 388.089)" stroke="#00FFD2" stroke-width="2"/>
<circle cx="35.1833" cy="377.542" r="580.82" transform="rotate(-135 35.1833 377.542)" stroke="#00FFD2" stroke-width="2"/>
<circle cx="35.1833" cy="366.997" r="580.82" transform="rotate(-135 35.1833 366.997)" stroke="#00FFD2" stroke-width="2"/>
<circle cx="35.1833" cy="356.451" r="580.82" transform="rotate(-135 35.1833 356.451)" stroke="#00FFD2" stroke-width="2"/>
<circle cx="35.1833" cy="345.905" r="580.82" transform="rotate(-135 35.1833 345.905)" stroke="#00FFD2" stroke-width="2"/>
<circle cx="35.1833" cy="335.36" r="580.82" transform="rotate(-135 35.1833 335.36)" stroke="#00FFD2" stroke-width="2"/>
<circle cx="35.1833" cy="324.814" r="580.82" transform="rotate(-135 35.1833 324.814)" stroke="#00FFD2" stroke-width="2"/>
<circle cx="35.1833" cy="314.268" r="580.82" transform="rotate(-135 35.1833 314.268)" stroke="#00FFD2" stroke-width="2"/>
<circle cx="35.1833" cy="303.722" r="580.82" transform="rotate(-135 35.1833 303.722)" stroke="#00FFD2" stroke-width="2"/>
<circle cx="35.1896" cy="293.177" r="580.82" transform="rotate(-135 35.1896 293.177)" stroke="#00FFD2" stroke-width="2"/>
<circle cx="35.1896" cy="282.632" r="580.82" transform="rotate(-135 35.1896 282.632)" stroke="#00FFD2" stroke-width="2"/>
<circle cx="35.1896" cy="272.085" r="580.82" transform="rotate(-135 35.1896 272.085)" stroke="#00FFD2" stroke-width="2"/>
<circle cx="35.1896" cy="261.54" r="580.82" transform="rotate(-135 35.1896 261.54)" stroke="#00FFD2" stroke-width="2"/>
<circle cx="35.1896" cy="250.994" r="580.82" transform="rotate(-135 35.1896 250.994)" stroke="#00FFD2" stroke-width="2"/>
<circle cx="35.1896" cy="240.449" r="580.82" transform="rotate(-135 35.1896 240.449)" stroke="#00FFD2" stroke-width="2"/>
<circle cx="35.1896" cy="229.903" r="580.82" transform="rotate(-135 35.1896 229.903)" stroke="#00FFD2" stroke-width="2"/>
<circle cx="35.1891" cy="219.357" r="580.82" transform="rotate(-135 35.1891 219.357)" stroke="#00FFD2" stroke-width="2"/>
<circle cx="35.1891" cy="208.812" r="580.82" transform="rotate(-135 35.1891 208.812)" stroke="#00FFD2" stroke-width="2"/>
<circle cx="35.1891" cy="198.266" r="580.82" transform="rotate(-135 35.1891 198.266)" stroke="#00FFD2" stroke-width="2"/>
<circle cx="35.1891" cy="187.72" r="580.82" transform="rotate(-135 35.1891 187.72)" stroke="#00FFD2" stroke-width="2"/>
<circle cx="35.1891" cy="177.175" r="580.82" transform="rotate(-135 35.1891 177.175)" stroke="#00FFD2" stroke-width="2"/>
<circle cx="35.1891" cy="166.629" r="580.82" transform="rotate(-135 35.1891 166.629)" stroke="#00FFD2" stroke-width="2"/>
<circle cx="35.1891" cy="156.083" r="580.82" transform="rotate(-135 35.1891 156.083)" stroke="#00FFD2" stroke-width="2"/>
<circle cx="35.1891" cy="145.537" r="580.82" transform="rotate(-135 35.1891 145.537)" stroke="#00FFD2" stroke-width="2"/>
<circle cx="35.1891" cy="134.991" r="580.82" transform="rotate(-135 35.1891 134.991)" stroke="#00FFD2" stroke-width="2"/>
<circle cx="35.1891" cy="124.446" r="580.82" transform="rotate(-135 35.1891 124.446)" stroke="#00FFD2" stroke-width="2"/>
<circle cx="35.1891" cy="113.9" r="580.82" transform="rotate(-135 35.1891 113.9)" stroke="#00FFD2" stroke-width="2"/>
<circle cx="35.1891" cy="103.354" r="580.82" transform="rotate(-135 35.1891 103.354)" stroke="#00FFD2" stroke-width="2"/>
<circle cx="35.1891" cy="92.8089" r="580.82" transform="rotate(-135 35.1891 92.8089)" stroke="#00FFD2" stroke-width="2"/>
<circle cx="35.1891" cy="82.263" r="580.82" transform="rotate(-135 35.1891 82.263)" stroke="#00FFD2" stroke-width="2"/>
</svg>
